<?xml version="1.0" encoding="utf-8"?>
<!-- Generator: Adobe Illustrator 19.0.0, SVG Export Plug-In . SVG Version: 6.00 Build 0)  -->
<svg version="1.1" id="Layer_1" xmlns="http://www.w3.org/2000/svg" xmlns:xlink="http://www.w3.org/1999/xlink" x="0px" y="0px"
	 viewBox="0 0 700 300" style="enable-background:new 0 0 700 300;" xml:space="preserve">
<style type="text/css">
	.st0{fill:none;}
	.st1{display:none;}
	.st2{display:inline;}
	.st3{display:inline;fill:none;}
</style>
<g id="XMLID_2_">
	<g id="XMLID_69_">
		<polygon id="XMLID_22_" points="50,192 96.3,192 80.2,207 50,207 		"/>
		<polygon id="XMLID_23_" points="188,230 188,245 110,245 110,207 99.7,207 115.7,192 128,192 128,230 		"/>
		<line id="XMLID_20_" class="st0" x1="115.7" y1="193" x2="99.7" y2="208"/>
		<path id="XMLID_78_" d="M244.8,245l17.4-52.9h26.3l17.7,52.9h-20l-3.3-9.5h-15.7l-3.3,9.5H244.8z M275.4,203.8l-7.6,21h14.6
			L275.4,203.8z"/>
		<path id="XMLID_73_" d="M381.6,245V192h36.1c5.8,0,10.2,1.1,13.2,3c3,2,4.8,5.2,5.5,9.8c0.2,3.5-0.5,6.3-2.2,8.3
			c-1.7,2-4.5,3.7-8.5,4.9v0.1c1.9,0.2,3.7,0.8,5.4,1.6c1.6,0.8,3,1.7,4.1,2.8c1.1,1.1,2,2.3,2.6,3.7c0.6,1.4,0.9,2.7,0.9,4
			c0,4.2-1.1,7.3-3.2,9.5c-2.1,2.2-4.9,3.6-8.2,4.2c-3.4,0.7-7.4,1-12.2,0.9H381.6z M399.9,204.9v8h12.8c0.7,0,1.5-0.4,2.2-1.1
			c0.8-0.7,1.2-1.7,1.2-3c-0.1-1.4-0.6-2.5-1.4-3c-0.8-0.6-1.5-0.9-2.1-0.9H399.9z M399.9,224.5v9.8h11.8c2,0.1,3.8-0.4,5.3-1.3
			c1.5-1,2.3-2.1,2.3-3.5c0.1-1.5-0.5-2.7-1.9-3.6c-1.4-0.9-3.3-1.3-5.7-1.3H399.9z"/>
		<path id="XMLID_25_" d="M577.4,212.7c8,7.2,11.8,13.8,11.7,20.6c-0.1,6.8-4,11.8-11.7,11.8H491v-15h69.4c6.9,0,7.8-1.9,2.7-6.1
			c-8.5-8.1-12.1-15.2-10.9-22c1.3-6.8,5.3-9.8,12-9.8h33l3.2,2.8l12.9,12.2h-33.1C574,207,573,208.9,577.4,212.7z"/>
		<polygon id="XMLID_26_" points="650,192 650,207 632.8,207 619.9,194.8 616.7,192 		"/>
		<polyline id="XMLID_15_" class="st0" points="597.3,193 600.5,196 613.4,208 		"/>
		<polyline id="XMLID_9_" class="st0" points="616.7,193 619.9,196 632.8,208 		"/>
	</g>
	<g id="XMLID_63_">
		<path id="XMLID_64_" d="M362,150.6L362,150.6"/>
	</g>
	<g id="XMLID_43_">
		<path id="XMLID_54_" d="M338.7,78.2c-4.8-7.9-11.8-14-21-18c-9.2-4.1-20.1-6.1-32.7-6.1c-9.5,0-18,1.2-25.6,3.5
			c-7.5,2.3-13.9,5.7-19,10.2c-5.2,4.5-9.1,10-11.8,16.6c-2.7,6.6-4,14.2-4,22.8c0,11.4,2.3,21.1,7,29s11.6,13.9,20.7,17.9
			c9.1,4,20,6.1,32.7,6.1c12.7,0,23.6-2,32.8-6c9.2-4,16.1-10,21-18c4.8-8,7.3-17.6,7.3-28.9C346,95.8,343.5,86.1,338.7,78.2z
			 M306.7,119.4c-0.8,3.3-3,6.3-6.4,8.8c-3.4,2.6-8.6,3.9-15.6,3.9c-9,0-15-2.5-18.1-7.4c-3-4.9-4.6-10.7-4.6-17.3
			c0-16.5,7.5-24.8,22.6-24.8c9.6,0,15.8,2.5,18.8,7.4c3,4.9,4.6,10.7,4.9,17.4C308.2,112,307.6,116,306.7,119.4z"/>
		<path id="XMLID_51_" d="M463.2,81.7c-3-6.5-6.6-11.7-11.1-15.5c-4.4-3.8-9.9-6.7-16.3-9S421.8,54,413.4,54H351v106h60.6
			c9.7,0,17.7-1,24.1-3.1c6.4-2.1,11.8-5.3,16.3-9.2c4.5-3.9,8-9.3,10.7-16c2.7-6.7,4.3-14.9,4.8-24.6
			C467.6,96.7,466.1,88.2,463.2,81.7z M424.2,122.9c-1.8,3-4,5.4-6.8,7.3c-2.8,1.9-6.5,2.8-11,2.8H386V80h20.3c4.6,0,8.4,1,11.3,2.9
			c2.9,1.9,5.2,4.6,7.1,8c1.8,3.4,2.8,8.7,3,15.8C427.1,114.5,426,119.9,424.2,122.9z"/>
		<g id="XMLID_48_" class="st1">
			<path id="XMLID_50_" class="st2" d="M235.8,54l-25.5,37l-24.6,35.8l0,0L170.8,142c-5,5.2-10.3,9.3-15.2,12.2
				c-0.2,0.1-0.4,0.5-0.6,0.6c-5.9,3.4-11.9,5.3-17.7,5.3H50v-30h83.8c6.5,0,11.1-2.9,13.8-6.3l5.2-6.7l-0.3-0.5l-4.2-6.3L124,74.5
				l-0.1,0.1L109.4,54h41.8l0.5,0.2l0.1,0.1l16.8,25.3l4.1,6.4l4.2-6l17.6-26H235.8z"/>
			<polyline id="XMLID_49_" class="st3" points="50,169 50,159.5 50,129.2 50,108 			"/>
		</g>
		<path id="XMLID_44_" class="st0" d="M587.9,129.5c1.4,0.3,2.9,0.5,4.5,0.5h1.5C591.6,130,589.6,129.8,587.9,129.5z M580.9,125.9
			c-0.3-0.3-0.5-0.5-0.7-0.8l-2.7-3.5l-0.1-0.1l-1.1-1.5c0.1,0,0.1-0.1,0.2-0.1H576v0.2l1.1,1.4l0.3,0.2l1.4,2.1
			c0.6,0.8,1.3,1.5,2.1,2.2c0.3,0.3,0.7,0.5,1,0.8C581.5,126.6,581.2,126.3,580.9,125.9z M584.5,128.3c-0.9-0.4-1.8-0.9-2.6-1.5
			c1.6,1.3,3.5,2.1,6,2.6C586.6,129.1,585.5,128.8,584.5,128.3z M650,106v23.6v0.4v30v18"/>
		<path id="XMLID_30_" class="st1" d="M592.2,130c-1.7,0-3.2-0.3-4.5-0.7c-2.4-0.5-4.4-1.4-6-2.7c-0.4-0.2-0.7-0.5-1-0.8
			c-0.8-0.7-1.5-1.4-2.1-2.2l-1.4-2.2l-0.3-0.2l-1.1-1.3l0,0h0.4l-0.5-0.8l-2.1-5.8l-0.1-0.2l-4.2-11.8l-0.1-0.3l0,0L562.6,83
			l-0.1-0.1l-0.2-0.5l-0.1-0.4l-9.7-26.4l-0.2-0.5L552,54h-52.5l-0.3,0.7l-12.9,40.2L465.5,160h38l6.5-18h36c0.3,1,0.3,0.9,0.3,0.9
			c0,0,0.1,0.2,0.3,1c1.6,4.3,8.8,11.5,15,13.1c5.5,1.5,10.1,3,13.4,3h75l-0.2-30H592.2z M511.2,121l12.3-35.8l1-3.2l0.3-1l0.5-1.5
			l0.8-1.9l13.3,43.3H511.2z"/>
	</g>
</g>
<path id="XMLID_17_" d="M109.4,53.9c7,0,14.1,0,21.1,0s14.1,0,21.1,0c7,10.5,14,21,21,31.5c7.4-10.5,14.8-21,22.1-31.5
	c13.8,0,27.5-0.1,41.3-0.1c-12.1,17.5-24.2,35.1-36.4,52.6c-4.3,6.3-8.7,12.7-13,19c-2.6,4.1-6.5,9.8-12.2,16
	c-5.2,5.7-9.1,9.8-15.4,13.2c-1.9,1-4.6,2.4-8.1,3.4c-5.8,1.8-10.5,1.9-12.7,1.9c-7.6,0.1-41.6,0.2-88.3,0c0-10,0-20,0-30
	c28,0,56,0,84,0c3.2,0,5.6-0.8,7-1.4c3.5-1.5,5.6-3.9,7.9-6.5c1.9-2.1,3.2-4.1,4-5.5C138.4,95.7,123.9,74.8,109.4,53.9z"/>
<path id="XMLID_10_" d="M552.1,150.9c1.3,1.4,3.1,3.2,5.2,4.3c0.6,0.3,1.5,0.8,2.6,1.3c1.9,0.8,2.7,1.2,6,2.1
	c1.6,0.4,4.4,0.8,8.4,1.4c25.3-0.1,50.6-0.2,75.9-0.3c0-9.9-0.1-19.8-0.1-29.8c-29.4-0.3-48.4-0.4-53.3,0c-0.6,0-3.2,0.2-6.4-0.3
	c-3.9-0.7-6.5-2.2-7.3-2.6c-1.1-0.6-2.7-1.5-4.4-3.3c-1.5-1.6-2.5-3.3-3-4.4c-8-21.8-15.9-43.7-23.9-65.5c-17.5,0-35.1-0.1-52.6-0.1
	c-11.3,35.3-22.7,70.6-34,105.9c12.8,0,25.5,0.1,38.3,0.1c2.2-6,4.3-11.9,6.5-17.9c12,0,24-0.1,36-0.1
	C548,144.9,550.1,147.9,552.1,150.9z M511.2,120.9c4.9-14.5,9.8-28.9,14.8-43.4c4.5,14.5,9,29,13.4,43.6
	C530,121,520.6,120.9,511.2,120.9z"/>
</svg>
